<?xml version="1.0" encoding="UTF-8" standalone="no"?>
<!-- Created with Inkscape (http://www.inkscape.org/) -->

<svg
   xmlns:dc="http://purl.org/dc/elements/1.1/"
   xmlns:cc="http://creativecommons.org/ns#"
   xmlns:rdf="http://www.w3.org/1999/02/22-rdf-syntax-ns#"
   xmlns:svg="http://www.w3.org/2000/svg"
   xmlns="http://www.w3.org/2000/svg"
   xmlns:sodipodi="http://sodipodi.sourceforge.net/DTD/sodipodi-0.dtd"
   xmlns:inkscape="http://www.inkscape.org/namespaces/inkscape"
   width="744.09448819"
   height="1052.3622047"
   id="svg2"
   version="1.1"
   inkscape:version="0.48.1 "
   inkscape:export-filename="D:\Programming\C\Puzzle\Fotos\Referenz\origin2.png"
   inkscape:export-xdpi="299.90033"
   inkscape:export-ydpi="299.90033"
   sodipodi:docname="New document 1">
  <defs
     id="defs4">
    <inkscape:path-effect
       effect="spiro"
       id="path-effect3201"
       is_visible="true" />
    <inkscape:path-effect
       effect="spiro"
       id="path-effect3047"
       is_visible="true" />
    <inkscape:path-effect
       effect="spiro"
       id="path-effect3043"
       is_visible="true" />
    <inkscape:path-effect
       effect="spiro"
       id="path-effect3039"
       is_visible="true" />
    <inkscape:path-effect
       effect="spiro"
       id="path-effect3035"
       is_visible="true" />
    <inkscape:path-effect
       effect="spiro"
       id="path-effect3031"
       is_visible="true" />
    <inkscape:path-effect
       effect="spiro"
       id="path-effect3027"
       is_visible="true" />
    <inkscape:path-effect
       effect="spiro"
       id="path-effect3023"
       is_visible="true" />
    <inkscape:path-effect
       effect="spiro"
       id="path-effect3019"
       is_visible="true" />
    <inkscape:path-effect
       effect="spiro"
       id="path-effect3015"
       is_visible="true" />
    <inkscape:path-effect
       effect="spiro"
       id="path-effect3011"
       is_visible="true" />
    <inkscape:path-effect
       effect="spiro"
       id="path-effect3007"
       is_visible="true" />
    <inkscape:path-effect
       effect="spiro"
       id="path-effect2999"
       is_visible="true" />
    <inkscape:path-effect
       effect="spiro"
       id="path-effect2995"
       is_visible="true" />
    <inkscape:path-effect
       effect="spiro"
       id="path-effect2991"
       is_visible="true" />
  </defs>
  <sodipodi:namedview
     id="base"
     pagecolor="#ffffff"
     bordercolor="#666666"
     borderopacity="1.0"
     inkscape:pageopacity="0.0"
     inkscape:pageshadow="2"
     inkscape:zoom="2.9578314"
     inkscape:cx="250.97586"
     inkscape:cy="584.3424"
     inkscape:document-units="px"
     inkscape:current-layer="layer1"
     showgrid="true"
     inkscape:window-width="1920"
     inkscape:window-height="1138"
     inkscape:window-x="1912"
     inkscape:window-y="-8"
     inkscape:window-maximized="1">
    <inkscape:grid
       type="xygrid"
       id="grid4216" />
  </sodipodi:namedview>
  <metadata
     id="metadata7">
    <rdf:RDF>
      <cc:Work
         rdf:about="">
        <dc:format>image/svg+xml</dc:format>
        <dc:type
           rdf:resource="http://purl.org/dc/dcmitype/StillImage" />
        <dc:title></dc:title>
      </cc:Work>
    </rdf:RDF>
  </metadata>
  <g
     inkscape:label="Layer 1"
     inkscape:groupmode="layer"
     id="layer1">
    <path
       style="fill:none;stroke:#000000;stroke-width:0.88634992px;stroke-linecap:butt;stroke-linejoin:miter;stroke-opacity:1"
       d="m 170,612.36218 c 0,-15 1.41976,-45.40011 -1.81995,-54.3745 -5.86229,-9.65766 -18.3715,-9.57187 -25.06574,-1.01267 -7.21182,6.44445 -17.002,9.39921 -25.23403,4.8539 -11.44378,-8.64685 -15.03417,-30.61905 -6.85738,-44.39841 7.28013,-10.48016 20.49121,-11.16062 29.35068,-4.09633 3.17962,2.41882 5.70433,5.95747 8.58719,8.82272 8.18277,5.21161 19.93981,-2.54036 20.55476,-14.52363 C 169.98569,502.37057 170,482.36218 170,462.36218"
       id="path3231"
       inkscape:connector-curvature="0"
       sodipodi:nodetypes="ccccccccc" />
    <path
       style="fill:none;stroke:#000000;stroke-width:1px;stroke-linecap:butt;stroke-linejoin:miter;stroke-opacity:1"
       d="m 170,462.36218 c -60,0 -60,0 -62.32791,2.67682 -6.27941,4.81531 -4.72983,16.19179 2.57903,19.19121 4.75292,3.14908 7.25175,9.6504 5.18189,15.07418 -5.62617,6.31631 -14.65216,6.91648 -22.544349,7.34565 -9.149077,0.2975 -18.454429,-1.96143 -26.257553,-6.80324 -4.536222,-5.04844 -2.593608,-13.71668 2.94699,-17.21024 3.464216,-3.61152 6.675329,-8.17018 6.519112,-13.39705 -1.507357,-4.94018 -6.096066,-7.61498 -11.09721,-6.87733 -4.168152,-0.31962 -25,0 -45,0"
       id="path3248"
       inkscape:connector-curvature="0"
       sodipodi:nodetypes="cccccccccc" />
    <path
       style="fill:none;stroke:#000000;stroke-width:1px;stroke-linecap:butt;stroke-linejoin:miter;stroke-opacity:1"
       d="m 170,462.36218 c 35,0 40.09751,0.45005 44.32946,-5.38609 3.54985,-5.3671 -1.22326,-11.20455 -4.93033,-14.96221 -4.01752,-6.14086 0.14547,-14.96884 6.78705,-17.21433 15.1595,-7.28756 33.80797,-7.54551 48.9143,-0.0484 7.57453,5.24622 10.87882,13.76297 4.57701,24.53386 -2.67514,4.57229 -0.57035,10.22003 7.39368,11.97035 7.96403,1.75032 28.62299,0.79754 42.92883,1.1065"
       id="path3492"
       inkscape:connector-curvature="0"
       sodipodi:nodetypes="cccccszc" />
    <path
       style="fill:none;stroke:#000000;stroke-width:1px;stroke-linecap:butt;stroke-linejoin:miter;stroke-opacity:1"
       d="m 320,612.36218 c 0,-10 1.15406,-47.37325 -1.26269,-52 -5.30981,-5.50733 -15.05953,-4.98173 -20.24243,0.43268 -6.7231,4.87373 -17.55647,0.84979 -19.68556,-7.11572 -3.89737,-9.62168 -4.553,-20.80131 -0.72789,-30.54514 3.74115,-7.11294 13.51981,-10.05484 20.55986,-6.14247 3.65438,1.5252 6.56766,5.47982 10.86034,4.95748 C 316.0778,521.39043 320,517.36218 319.7462,507.98412 320,502.36218 320.51889,463.8222 320,462.36218"
       id="path3625"
       inkscape:connector-curvature="0"
       sodipodi:nodetypes="ccccccccc" />
    <path
       style="fill:none;stroke:#000000;stroke-width:1px;stroke-linecap:butt;stroke-linejoin:miter;stroke-opacity:1"
       d="m 320,462.36218 c 50,0 54.00195,-0.1246 59.72859,-2.76595 5.58143,-4.57205 4.58163,-14.66684 -1.78264,-18.06139 -5.55526,-5.43181 -4.33264,-15.91235 2.31522,-19.92844 12.49874,-11.30515 34.4904,-8.91068 44.28452,4.79639 4.96742,6.88277 2.67531,17.67564 -4.57007,22.04596 -5.09042,4.55244 -0.929,14.55715 5.90119,14.10778 C 428.08439,462.67965 435,462.36218 470,462.36218"
       id="path3770"
       inkscape:connector-curvature="0"
       sodipodi:nodetypes="cccccccc" />
    <path
       style="fill:none;stroke:#000000;stroke-width:1px;stroke-linecap:butt;stroke-linejoin:miter;stroke-opacity:1"
       d="m 170,312.36218 c 0.64756,2.12887 0,39.79005 0,55 0,5.37937 2.75839,7.93205 4.63064,9.47302 5.38662,4.41359 13.92447,3.78275 18.91882,-0.93787 6.51621,-4.31056 16.29594,-4.25047 21.80779,1.71125 7.42187,7.77213 5.83847,22.43081 -3.73598,27.76075 -8.11969,4.49517 -19.12653,1.02634 -23.98011,-6.67573 -2.86324,-3.66192 -7.94415,-6.59618 -12.59594,-4.5887 -3.59935,1.47856 -5.53268,5.54499 -5.1887,9.30457 -0.0774,2.94805 0.61224,56.02175 0.14348,58.95271"
       id="path3838"
       inkscape:connector-curvature="0"
       sodipodi:nodetypes="cscccccccc" />
    <path
       style="fill:none;stroke:#000000;stroke-width:1px;stroke-linecap:butt;stroke-linejoin:miter;stroke-opacity:1"
       d="m 320,462.36218 c 0,-45 1.07143,-49.64286 -3.98298,-57.46302 -3.80751,-4.28161 -12.38597,-4.7355 -15.98697,-2.73374 -4.57785,2.29329 -6.84779,6.40001 -12.28132,5.46119 -5.45112,-0.42905 -10.31623,-4.3416 -11.72888,-9.65573 -3.00719,-8.05863 -3.27049,-17.21543 -0.77742,-25.42673 3.73142,-8.80389 14.34354,-15.11673 23.76978,-11.81311 5.03672,2.72393 10.09493,1.98829 15.98779,-3.36886 2.1463,-1.95118 4.34421,-3.10107 5,-20 0.0762,-3.31222 -0.0219,-21.68706 0,-25"
       id="path3933"
       inkscape:connector-curvature="0"
       sodipodi:nodetypes="cccccccscc" />
    <path
       style="fill:none;stroke:#000000;stroke-width:1px;stroke-linecap:butt;stroke-linejoin:miter;stroke-opacity:1"
       d="m 20,312.36218 150,0"
       id="path4218"
       inkscape:connector-curvature="0" />
    <path
       inkscape:connector-curvature="0"
       id="path4220"
       d="m 20,312.36218 0,150"
       style="fill:none;stroke:#000000;stroke-width:1px;stroke-linecap:butt;stroke-linejoin:miter;stroke-opacity:1" />
    <path
       style="fill:none;stroke:#000000;stroke-width:1px;stroke-linecap:butt;stroke-linejoin:miter;stroke-opacity:1"
       d="m 20,462.36218 0,150"
       id="path4224"
       inkscape:connector-curvature="0" />
    <path
       style="fill:none;stroke:#000000;stroke-width:1px;stroke-linecap:butt;stroke-linejoin:miter;stroke-opacity:1"
       d="m 170,312.36218 150,0"
       id="path4226"
       inkscape:connector-curvature="0" />
    <path
       style="fill:none;stroke:#000000;stroke-width:1px;stroke-linecap:butt;stroke-linejoin:miter;stroke-opacity:1"
       d="m 320,312.36218 150,0"
       id="path4234"
       inkscape:connector-curvature="0" />
    <path
       inkscape:connector-curvature="0"
       id="path4242"
       d="m 20,612.36218 150,0"
       style="fill:none;stroke:#000000;stroke-width:1px;stroke-linecap:butt;stroke-linejoin:miter;stroke-opacity:1" />
    <path
       inkscape:connector-curvature="0"
       id="path4244"
       d="m 170,612.36218 150,0"
       style="fill:none;stroke:#000000;stroke-width:1px;stroke-linecap:butt;stroke-linejoin:miter;stroke-opacity:1" />
    <path
       inkscape:connector-curvature="0"
       id="path4246"
       d="m 320,612.36218 150,0"
       style="fill:none;stroke:#000000;stroke-width:1px;stroke-linecap:butt;stroke-linejoin:miter;stroke-opacity:1" />
    <path
       style="fill:none;stroke:#000000;stroke-width:1px;stroke-linecap:butt;stroke-linejoin:miter;stroke-opacity:1"
       d="m 470,312.36218 0,150"
       id="path4248"
       inkscape:connector-curvature="0" />
    <path
       inkscape:connector-curvature="0"
       id="path4250"
       d="m 470,462.36218 0,150"
       style="fill:none;stroke:#000000;stroke-width:1px;stroke-linecap:butt;stroke-linejoin:miter;stroke-opacity:1" />
  </g>
</svg>
