<?xml version="1.0" encoding="UTF-8" standalone="no"?>
<!-- Created with Inkscape (http://www.inkscape.org/) -->

<svg
   xmlns:dc="http://purl.org/dc/elements/1.1/"
   xmlns:cc="http://creativecommons.org/ns#"
   xmlns:rdf="http://www.w3.org/1999/02/22-rdf-syntax-ns#"
   xmlns:svg="http://www.w3.org/2000/svg"
   xmlns="http://www.w3.org/2000/svg"
   xmlns:sodipodi="http://sodipodi.sourceforge.net/DTD/sodipodi-0.dtd"
   xmlns:inkscape="http://www.inkscape.org/namespaces/inkscape"
   width="744.09448819"
   height="1052.3622047"
   id="svg2"
   version="1.1"
   inkscape:version="0.48.1 "
   sodipodi:docname="features.svg">
  <defs
     id="defs4">
    <marker
       inkscape:stockid="Arrow2Sstart"
       orient="auto"
       refY="0.0"
       refX="0.0"
       id="Arrow2Sstart"
       style="overflow:visible">
      <path
         id="path3842"
         style="font-size:12.0;fill-rule:evenodd;stroke-width:0.62500000;stroke-linejoin:round"
         d="M 8.7185878,4.0337352 L -2.2072895,0.016013256 L 8.7185884,-4.0017078 C 6.9730900,-1.6296469 6.9831476,1.6157441 8.7185878,4.0337352 z "
         transform="scale(0.3) translate(-2.3,0)" />
    </marker>
    <marker
       inkscape:stockid="Arrow2Send"
       orient="auto"
       refY="0.0"
       refX="0.0"
       id="Arrow2Send"
       style="overflow:visible;">
      <path
         id="path3845"
         style="font-size:12.0;fill-rule:evenodd;stroke-width:0.62500000;stroke-linejoin:round;"
         d="M 8.7185878,4.0337352 L -2.2072895,0.016013256 L 8.7185884,-4.0017078 C 6.9730900,-1.6296469 6.9831476,1.6157441 8.7185878,4.0337352 z "
         transform="scale(0.3) rotate(180) translate(-2.3,0)" />
    </marker>
    <marker
       inkscape:stockid="Arrow2Mend"
       orient="auto"
       refY="0.0"
       refX="0.0"
       id="Arrow2Mend"
       style="overflow:visible;">
      <path
         id="path3839"
         style="font-size:12.0;fill-rule:evenodd;stroke-width:0.62500000;stroke-linejoin:round;"
         d="M 8.7185878,4.0337352 L -2.2072895,0.016013256 L 8.7185884,-4.0017078 C 6.9730900,-1.6296469 6.9831476,1.6157441 8.7185878,4.0337352 z "
         transform="scale(0.6) rotate(180) translate(0,0)" />
    </marker>
    <marker
       inkscape:stockid="Arrow2Mstart"
       orient="auto"
       refY="0.0"
       refX="0.0"
       id="Arrow2Mstart"
       style="overflow:visible">
      <path
         id="path3836"
         style="font-size:12.0;fill-rule:evenodd;stroke-width:0.62500000;stroke-linejoin:round"
         d="M 8.7185878,4.0337352 L -2.2072895,0.016013256 L 8.7185884,-4.0017078 C 6.9730900,-1.6296469 6.9831476,1.6157441 8.7185878,4.0337352 z "
         transform="scale(0.6) translate(0,0)" />
    </marker>
    <marker
       inkscape:stockid="Arrow1Lstart"
       orient="auto"
       refY="0.0"
       refX="0.0"
       id="Arrow1Lstart"
       style="overflow:visible">
      <path
         id="path3812"
         d="M 0.0,0.0 L 5.0,-5.0 L -12.5,0.0 L 5.0,5.0 L 0.0,0.0 z "
         style="fill-rule:evenodd;stroke:#000000;stroke-width:1.0pt;marker-start:none"
         transform="scale(0.8) translate(12.5,0)" />
    </marker>
  </defs>
  <sodipodi:namedview
     id="base"
     pagecolor="#ffffff"
     bordercolor="#666666"
     borderopacity="1.0"
     inkscape:pageopacity="0.0"
     inkscape:pageshadow="2"
     inkscape:zoom="0.49497475"
     inkscape:cx="849.02662"
     inkscape:cy="750.93198"
     inkscape:document-units="px"
     inkscape:current-layer="layer1"
     showgrid="false"
     inkscape:window-width="1920"
     inkscape:window-height="1138"
     inkscape:window-x="1912"
     inkscape:window-y="-8"
     inkscape:window-maximized="1" />
  <metadata
     id="metadata7">
    <rdf:RDF>
      <cc:Work
         rdf:about="">
        <dc:format>image/svg+xml</dc:format>
        <dc:type
           rdf:resource="http://purl.org/dc/dcmitype/StillImage" />
        <dc:title></dc:title>
      </cc:Work>
    </rdf:RDF>
  </metadata>
  <g
     inkscape:label="Layer 1"
     inkscape:groupmode="layer"
     id="layer1">
    <path
       style="fill:none;stroke:#000000;stroke-width:1.89999998;stroke-miterlimit:4;stroke-opacity:1;stroke-dasharray:none"
       d="m 527.55594,761.27678 c 0.462,-1.2375 1.3958,-3.825 2.075,-5.75 1.2743,-3.61136 6.1153,-23.88485 15.0434,-63 2.8246,-12.375 6.7049,-29.25 8.6229,-37.5 1.918,-8.25 3.6845,-16.94353 3.9256,-19.31895 0.2411,-2.37542 1.0507,-7.10042 1.7991,-10.5 0.7483,-3.39958 1.3793,-7.08105 1.4022,-8.18105 0.023,-1.1 0.4706,-5.14457 0.9951,-8.98793 1.189,-8.71372 0.7753,-10.20756 -4.4948,-16.23179 -3.9793,-4.5487 -8.8863,-7.60288 -18.9233,-11.77809 -8.8069,-3.66352 -28.2225,-1.76244 -37.0064,3.62348 -7.2859,4.46737 -24.6074,5.69538 -31.2725,2.21706 -1.4021,-0.73173 -3.0962,-1.33318 -3.7646,-1.33657 -1.3595,-0.007 -7.9473,-4.06881 -13.4185,-8.27374 -4.4097,-3.38903 -10.9241,-12.65689 -13.1825,-18.75444 -3.7472,-10.11671 -5.2575,-36.44443 -3.1321,-54.59908 1.6139,-13.78601 3.6835,-22.00026 8.0702,-32.03003 0.758,-1.73312 1.3782,-3.42552 1.3782,-3.7609 0,-1.31368 4.6183,-10.44316 8.7394,-17.27611 4.6265,-7.67101 11.252,-13.92656 17.7606,-16.76894 2.2,-0.96076 4.9,-2.16098 6,-2.66715 3.9087,-1.79857 15.0825,-3.58684 20.5,-3.28084 16.6518,0.94055 29.3771,7.16267 41.4181,20.2516 12.5712,13.6654 15.3693,15.36869 26.2068,15.95305 8.9862,0.48453 13.5476,-0.59637 19.8583,-4.70581 4.0636,-2.64612 8.4283,-6.95956 8.4852,-8.38558 0.017,-0.4355 0.9316,-1.75785 2.0316,-2.93856 1.1,-1.18072 2,-2.93534 2,-3.89917 0,-0.96384 0.3893,-1.99302 0.8651,-2.28709 0.4758,-0.29406 1.4181,-3.35812 2.094,-6.80902 0.6759,-3.45089 1.614,-6.74326 2.0847,-7.31637 0.4708,-0.57311 3.5822,-13.17311 6.9143,-28 3.3321,-14.82689 6.5141,-27.75447 7.0711,-28.72796 0.557,-0.97348 5.2889,-20.54848 10.5153,-43.5 5.2265,-22.95151 9.7399,-42.49402 10.0299,-43.42779 0.4096,-1.31899 -0.4323,-1.94612 -3.7736,-2.81086 -2.3654,-0.61219 -6.1008,-1.75426 -8.3008,-2.53792 -5.9058,-2.10372 -52.0909,-12.44624 -55.8076,-12.49734 -1.7558,-0.0241 -4.9924,-0.7254 -7.1924,-1.55836 -2.2,-0.83295 -11.65,-3.27904 -21,-5.43574 -9.35,-2.1567 -17.675,-4.31091 -18.5,-4.78714 -0.825,-0.47622 -3.8639,-1.43061 -6.7531,-2.12085 -2.8892,-0.69024 -5.5032,-1.65976 -5.809,-2.1545 -0.3057,-0.49474 -1.3496,-0.89952 -2.3197,-0.89952 -2.8243,0 -14.0743,-5.83077 -18.9622,-9.82793 -2.4697,-2.01964 -6.0944,-6.14707 -8.0549,-9.17207 -3.2263,-4.97809 -3.5663,-6.17306 -3.5828,-12.59289 -0.011,-4.31213 0.5609,-8.23262 1.459,-10 1.6065,-3.16117 9.0345,-13.276 11.7263,-15.96786 2.0703,-2.07026 4.5283,-6.27531 7.8558,-13.43925 1.405,-3.025 3.0915,-6.5808 3.7476,-7.90178 0.7087,-1.42675 1.193,-6.92039 1.193,-13.53243 0,-10.927 -0.8146,-14.68741 -4.7802,-22.06579 -0.5912,-1.1 -1.7825,-3.35 -2.6474,-5 -0.8648,-1.65 -2.1349,-3.35986 -2.8224,-3.79969 -0.6875,-0.43983 -1.25,-1.37187 -1.25,-2.07119 0,-0.69932 -2.0893,-3.03946 -4.6429,-5.20031 -2.5537,-2.16085 -5.4787,-4.71631 -6.5,-5.67881 -1.0214,-0.9625 -2.0734,-1.75 -2.3378,-1.75 -0.2644,0 -3.83,-2.25 -7.9236,-5 -4.0936,-2.75 -7.6598,-5 -7.925,-5 -0.2652,0 -5.2048,-2.249996 -10.977,-4.999996 -5.7722,-2.75 -11.1881,-5 -12.0353,-5 -0.8472,0 -1.7869,-0.39899 -2.0883,-0.88664 -0.3014,-0.48765 -2.2405,-1.20292 -4.309,-1.58948 -2.0686,-0.38657 -4.2192,-1.08106 -4.7791,-1.54331 -1.7874,-1.47558 -23.5977,-6.15541 -34.9572,-7.50075 -10.6957,-1.26673 -44.5276,-1.21414 -46.6094,0.0724 -0.5343,0.33026 -2.4214,0.77084 -4.1935,0.97906 -14.3897,1.69083 -26.5814,5.96435 -33.3084,11.67549 -6.03,5.11934 -11.1839,13.542946 -13.0003,21.247806 -1.6588,7.03601 -1.6639,7.82306 -0.087,13.49364 0.9208,3.31199 2.9616,8.16604 4.5352,10.78677 2.6331,4.38545 5.4069,11.03036 7.8914,18.90482 1.5166,4.80681 0.6804,15.593 -1.6102,20.7714 -3.2275,7.29622 -10.588,13.15878 -20.0483,15.96819 -5.6409,1.67515 -21.7369,1.54256 -28.8171,-0.23739 -2.0773,-0.52221 -5.1269,-0.96737 -6.7769,-0.98924 -1.65,-0.0219 -7.95,-1.22905 -14,-2.68263 -6.05,-1.45359 -13.925,-3.06361 -17.5,-3.57782 -3.575,-0.51421 -19.4854,-3.87413 -35.3564,-7.46649 -15.871,-3.59235 -29.551,-6.39528 -30.3999,-6.22872 -1.0266,0.2014 -2.1239,2.81498 -3.276,7.80284 -3.0397,13.15931 -12.6649,55.49078 -20.0093,88 -3.9139,17.325 -7.7111,32.85 -8.438,34.5 -0.727,1.65 -1.8662,5.67317 -2.5315,8.94038 -0.6654,3.26721 -1.5943,6.64221 -2.0643,7.5 -0.4699,0.85779 -1.8297,3.80962 -3.0217,6.55962 -3.6518,8.42513 -9.0525,15.24783 -18.902901,23.88036 -2.5892,2.2691 -16.3184,8.32632 -20.5,9.04445 -14.8251,2.54603 -27.6336,-0.61601 -35.1287,-8.67222 -3.0033,-3.2281 -9.3713,-12.80986 -9.3713,-14.10077 0,-1.34797 -11.4624,-19.2441 -14.4396,-22.54426 -8.6043999,-9.53809 -15.9086999,-15.34585 -23.5603996,-18.73318 -1.375,-0.60871 -3.625,-1.60146 -5.0000004,-2.20611 -13.0585,-5.74249 -33.67829,-5.59993 -47.45496,0.3281 -6.02767,2.59368 -16.62017,9.85859 -20.64312,14.15817 -6.11344,6.53383 -12.930934,16.64601 -14.559394,21.59551 -0.31668,0.9625 -0.97329,1.75 -1.45915,1.75 -0.48585,0 -0.88337,0.68111 -0.88337,1.51357 0,0.83246 -0.39749,2.29496 -0.88332,3.25 -4.215255,8.28627 -8.638605,22.76832 -9.693475,31.73643 -0.25878,2.2 -0.72466,6.25 -1.03529,9 -1.12054,9.91995 -0.47378,25.12478 1.52027,35.74059 4.39564,23.40124 16.054375,43.61508 27.341819,47.40507 0.9625,0.32318 1.75,0.98512 1.75,1.47097 0,0.48585 0.81,0.88337 1.8,0.88337 0.99,0 2.2275,0.40571 2.75,0.90158 1.31173,1.24486 14.767,4.04322 21.49252,4.4699 15.2927,0.97019 37.21297,-5.88295 52.5342701,-16.42431 9.3349999,-6.42266 26.3487999,-9.47519 38.6509999,-6.93458 10.0027,2.06573 18.4519,6.65818 25.5082,13.86458 11.8712,12.12362 14.456,21.69078 11.7857,43.62283 -0.4018,3.3 -0.8333,7.125 -0.959,8.5 -0.2709,2.9636 -2.1451,13.7255 -4.0926,23.5 -0.7671,3.85 -7.2434,32.6458 -14.3918,63.99066 -7.1483,31.34486 -12.6778,57.29168 -12.2876,57.65959 0.3901,0.36791 11.9593,3.20663 25.7093,6.30826 13.75,3.10163 27.7,6.28071 31.000001,7.06464 20.3329,4.83011 98.2577,22.25272 99.5,22.24643 0.825,-0.004 5.5468,0.55275 10.4928,1.23762 12.7013,1.75873 22.5336,0.7789 27.8216,-2.77255 8.7441,-5.87266 12.882,-14.30243 14.2656,-29.06226 0.7011,-7.47899 -2.9168,-17.46503 -8.3905,-23.15928 -8.6923,-9.04265 -11.167,-28.84261 -5.3135,-42.51311 2.7803,-6.49297 4.0937,-8.58632 8.848,-14.1016 3.965,-4.59968 7.0463,-6.97965 12.5178,-9.66872 21.3808,-10.50787 30.4351,-12.92073 49.7582,-13.25992 11.9114,-0.20908 14.8533,0.0947 25,2.58112 13.2526,3.24756 19,5.12117 19,6.19381 0,0.41542 0.9,0.75531 2,0.75531 1.1,0 2,0.45 2,1 0,0.55 0.6512,1 1.4471,1 4.4081,0 20.142,11.24246 29.9449,21.39678 6.1994,6.42161 15.3122,19.68265 17.5942,25.60322 0.742,1.925 1.7346,4.0094 2.2059,4.63199 2.639,3.48608 2.8073,25.53723 0.2349,30.77165 -0.7849,1.597 -1.427,3.38959 -1.427,3.98354 0,0.59395 -1.3813,3.85778 -3.0697,7.25296 -5.5236,11.10789 -17.4137,22.22158 -27.044,25.27808 -3.6069,1.14478 -6.6063,3.91182 -10.3863,9.58178 -3.0912,4.63688 -2.859,18.31916 0.4199,24.73532 4.6439,9.08711 -3.4984,6.47837 79.0801,25.33674 23.375,5.33812 49.7,11.39553 58.5,13.46091 19.326,4.53586 19.3304,4.53623 20.383,1.71703 z"
       id="path2996"
       inkscape:connector-curvature="0"
       sodipodi:nodetypes="ccssscccsssscscsssssssssscsscscssscsscsssscssscccccsscssccssssssscscsscccscsscsssccsccccsssscssssssssssssssssssssssscsscsssscssssssssscscscssssscc"
       inkscape:export-filename="D:\Programming\C\Puzzle\Doku\features.png"
       inkscape:export-xdpi="35.330002"
       inkscape:export-ydpi="35.330002" />
    <path
       style="fill:none;stroke:#000000;stroke-width:4;stroke-miterlimit:4;stroke-opacity:1;stroke-dasharray:none"
       d="m 1163.7684,352.08943 c -2.3654,-0.61219 -6.1008,-1.75426 -8.3008,-2.53792 -5.9058,-2.10372 -52.0909,-12.44624 -55.8076,-12.49734 -1.7558,-0.0241 -4.9924,-0.7254 -7.1924,-1.55836 -2.2,-0.83295 -11.65,-3.27904 -21,-5.43574 -9.35,-2.1567 -17.675,-4.31091 -18.5,-4.78714 -0.825,-0.47622 -3.8639,-1.43061 -6.7531,-2.12085 -2.8892,-0.69024 -5.5032,-1.65976 -5.809,-2.1545 -0.3057,-0.49474 -1.3496,-0.89952 -2.3197,-0.89952 -2.8243,0 -14.0743,-5.83077 -18.9622,-9.82793 -2.4697,-2.01964 -6.0944,-6.14707 -8.0549,-9.17207 -3.2263,-4.97809 -3.5663,-6.17306 -3.5828,-12.59289 -0.011,-4.31213 0.5609,-8.23262 1.459,-10 1.6065,-3.16117 9.0345,-13.276 11.7263,-15.96786 2.0703,-2.07026 4.5283,-6.27531 7.8558,-13.43925 1.405,-3.025 3.0915,-6.5808 3.7476,-7.90178 0.7087,-1.42675 1.193,-6.92039 1.193,-13.53243 0,-10.927 -0.8146,-14.68741 -4.7802,-22.06579 -0.5912,-1.1 -1.7825,-3.35 -2.6474,-5 -0.8648,-1.65 -2.1349,-3.35986 -2.8224,-3.79969 -0.6875,-0.43983 -1.25,-1.37187 -1.25,-2.07119 0,-0.69932 -2.0893,-3.03946 -4.6429,-5.20031 -2.5537,-2.16085 -5.4787,-4.71631 -6.5,-5.67881 -1.0214,-0.9625 -2.0734,-1.75 -2.3378,-1.75 -0.2644,0 -3.83,-2.25 -7.9236,-5 -4.09357,-2.75 -7.65977,-5 -7.92497,-5 -0.2652,0 -5.2048,-2.25 -10.977,-5 -5.7722,-2.75 -11.1881,-5 -12.0353,-5 -0.8472,0 -1.7869,-0.39899 -2.0883,-0.88664 -0.3014,-0.48765 -2.2405,-1.20292 -4.309,-1.58948 -2.0686,-0.38657 -4.2192,-1.08106 -4.7791,-1.54331 -1.7874,-1.47558 -23.5977,-6.15541 -34.9572,-7.50075 -10.6957,-1.26673 -44.5276,-1.21414 -46.6094,0.0724 -0.5343,0.33026 -2.4214,0.77084 -4.1935,0.97906 -14.3897,1.69083 -26.5814,5.96435 -33.3084,11.67549 -6.03,5.11934 -11.1839,13.54295 -13.0003,21.24781 -1.6588,7.03601 -1.6639,7.82306 -0.087,13.49364 0.9208,3.31199 2.9616,8.16604 4.5352,10.78677 2.6331,4.38545 5.4069,11.03036 7.8914,18.90482 1.5166,4.80681 0.6804,15.593 -1.6102,20.7714 -3.2275,7.29622 -10.588,13.15878 -20.0483,15.96819 -5.6409,1.67515 -21.7369,1.54256 -28.8171,-0.23739 -2.0773,-0.52221 -5.1269,-0.96737 -6.7769,-0.98924 -1.65,-0.0219 -7.95,-1.22905 -14,-2.68263 -6.05,-1.45359 -13.925,-3.06361 -17.5,-3.57782 -3.575,-0.51421 -19.4854,-3.87413 -35.3564,-7.46649 -15.871,-3.59235 -29.551,-6.39528 -30.3999,-6.22872"
       id="path2996-7"
       inkscape:connector-curvature="0"
       sodipodi:nodetypes="cscsssscssscccccsscssccssssssscscsscccscsscsssc"
       inkscape:export-filename="D:\Programming\C\Puzzle\Doku\features.png"
       inkscape:export-xdpi="35.330002"
       inkscape:export-ydpi="35.330002" />
    <path
       sodipodi:nodetypes="cscsssscssscccccsscssccssssssscscsscccscsscsssc"
       inkscape:connector-curvature="0"
       id="path3803"
       d="m 1155.6872,580.38391 c -2.3654,-0.61219 -6.1008,-1.75426 -8.3008,-2.53792 -5.9058,-2.10372 -52.0909,-12.44624 -55.8076,-12.49734 -1.7558,-0.0241 -4.9924,-0.7254 -7.1924,-1.55836 -2.2,-0.83295 -11.65,-3.27904 -21,-5.43574 -9.35,-2.1567 -17.675,-4.31091 -18.5,-4.78714 -0.825,-0.47622 -3.8639,-1.43061 -6.7531,-2.12085 -2.8892,-0.69024 -5.5032,-1.65976 -5.809,-2.1545 -0.3057,-0.49474 -1.3496,-0.89952 -2.3197,-0.89952 -2.8243,0 -14.0743,-5.83077 -18.9622,-9.82793 -2.4697,-2.01964 -6.0944,-6.14707 -8.0549,-9.17207 -3.22632,-4.97809 -3.56632,-6.17306 -3.58282,-12.59289 -0.011,-4.31213 0.5609,-8.23262 1.45902,-10 1.6065,-3.16117 9.0345,-13.276 11.7263,-15.96786 2.0703,-2.07026 4.5283,-6.27531 7.8558,-13.43925 1.405,-3.025 3.0915,-6.5808 3.7476,-7.90178 0.7087,-1.42675 1.193,-6.92039 1.193,-13.53243 0,-10.927 -0.8146,-14.68741 -4.7802,-22.06579 -0.5912,-1.1 -1.7825,-3.35 -2.6474,-5 -0.8648,-1.65 -2.1349,-3.35986 -2.8224,-3.79969 -0.6875,-0.43983 -1.25,-1.37187 -1.25,-2.07119 0,-0.69932 -2.0893,-3.03946 -4.6429,-5.20031 -2.5537,-2.16085 -5.4787,-4.71631 -6.5,-5.67881 -1.0214,-0.9625 -2.0734,-1.75 -2.3378,-1.75 -0.2644,0 -3.83002,-2.25 -7.92362,-5 -4.09357,-2.75 -7.65977,-5 -7.92497,-5 -0.2652,0 -5.2048,-2.25 -10.977,-5 -5.7722,-2.75 -11.1881,-5 -12.0353,-5 -0.8472,0 -1.7869,-0.39899 -2.0883,-0.88664 -0.3014,-0.48765 -2.2405,-1.20292 -4.309,-1.58948 -2.0686,-0.38657 -4.2192,-1.08106 -4.7791,-1.54331 -1.7874,-1.47558 -23.5977,-6.15541 -34.9572,-7.50075 -10.6957,-1.26673 -44.5276,-1.21414 -46.6094,0.0724 -0.5343,0.33026 -2.4214,0.77084 -4.1935,0.97906 -14.3897,1.69083 -26.5814,5.96435 -33.3084,11.67549 -6.03,5.11934 -11.1839,13.54295 -13.0003,21.24781 -1.6588,7.03601 -1.6639,7.82306 -0.087,13.49364 0.9208,3.31199 2.9616,8.16604 4.5352,10.78677 2.6331,4.38545 5.4069,11.03036 7.8914,18.90482 1.5166,4.80681 0.6804,15.593 -1.6102,20.7714 -3.2275,7.29622 -10.588,13.15878 -20.0483,15.96819 -5.6409,1.67515 -21.7369,1.54256 -28.8171,-0.23739 -2.0773,-0.52221 -5.1269,-0.96737 -6.7769,-0.98924 -1.65,-0.0219 -7.95,-1.22905 -14,-2.68263 -6.05,-1.45359 -13.925,-3.06361 -17.5,-3.57782 -3.575,-0.51421 -19.4854,-3.87413 -35.3564,-7.46649 -15.871,-3.59235 -29.551,-6.39528 -30.3999,-6.22872"
       style="fill:none;stroke:#000000;stroke-width:4;stroke-miterlimit:4;stroke-opacity:1;stroke-dasharray:none"
       inkscape:export-filename="D:\Programming\C\Puzzle\Doku\features.png"
       inkscape:export-xdpi="35.330002"
       inkscape:export-ydpi="35.330002" />
    <path
       style="fill:none;stroke:#000000;stroke-width:1;stroke-linecap:butt;stroke-linejoin:miter;stroke-opacity:0.60818714;stroke-miterlimit:4;stroke-dasharray:6, 6;stroke-dashoffset:0"
       d="m 676.42857,471.6479 477.85713,110"
       id="path3805"
       inkscape:connector-curvature="0"
       inkscape:export-filename="D:\Programming\C\Puzzle\Doku\features.png"
       inkscape:export-xdpi="35.330002"
       inkscape:export-ydpi="35.330002" />
    <path
       style="fill:none;stroke:#ff0000;stroke-width:3;stroke-linecap:butt;stroke-linejoin:miter;stroke-opacity:1;stroke-miterlimit:4;stroke-dasharray:none;marker-start:url(#Arrow2Mstart);marker-end:url(#Arrow2Mend)"
       d="M 900,522.36218 933.57143,381.6479"
       id="path3807"
       inkscape:connector-curvature="0"
       inkscape:export-filename="D:\Programming\C\Puzzle\Doku\features.png"
       inkscape:export-xdpi="35.330002"
       inkscape:export-ydpi="35.330002" />
    <path
       style="fill:none;stroke:#ff0000;stroke-width:3.27300000000000010;stroke-miterlimit:4;stroke-opacity:1;stroke-dasharray:none;marker-start:url(#Arrow2Sstart);marker-mid:none;marker-end:url(#Arrow2Send);fill-opacity:1"
       d="m 1062.4297,293.74512 c -22.2299,-25.58312 -2.3186,-60.21161 14.1855,-83.01491 17.4222,-35.28831 -10.3351,-76.545 -44.5053,-88.44565 C 973.76945,94.91343 907.17449,82.412949 843.18603,92.381838 c -34.75365,4.23669 -64.25009,38.695382 -48.45093,73.648652 10.75752,25.45815 4.94059,61.01418 -25.11814,68.87123"
       id="path4627"
       inkscape:connector-curvature="0"
       sodipodi:nodetypes="cccccc"
       inkscape:export-filename="D:\Programming\C\Puzzle\Doku\features.png"
       inkscape:export-xdpi="35.330002"
       inkscape:export-ydpi="35.330002" />
    <path
       style="fill:none;stroke:#000000;stroke-width:4;stroke-miterlimit:4;stroke-opacity:1;stroke-dasharray:none"
       d="m 1155.6872,580.38391 c -2.3654,-0.61219 -6.1008,-1.75426 -8.3008,-2.53792 -5.9058,-2.10372 -52.0909,-12.44624 -55.8076,-12.49734 -1.7558,-0.0241 -4.9924,-0.7254 -7.1924,-1.55836 -2.2,-0.83295 -11.65,-3.27904 -21,-5.43574 -9.35,-2.1567 -17.675,-4.31091 -18.5,-4.78714 -0.825,-0.47622 -3.8639,-1.43061 -6.7531,-2.12085 -2.8892,-0.69024 -5.5032,-1.65976 -5.809,-2.1545 -0.3057,-0.49474 -1.3496,-0.89952 -2.3197,-0.89952 -2.8243,0 -14.0743,-5.83077 -18.9622,-9.82793 -2.4697,-2.01964 -6.0944,-6.14707 -8.0549,-9.17207 -3.22632,-4.97809 -3.56632,-6.17306 -3.58282,-12.59289 -0.011,-4.31213 0.5609,-8.23262 1.45902,-10 1.6065,-3.16117 9.0345,-13.276 11.7263,-15.96786 2.0703,-2.07026 4.5283,-6.27531 7.8558,-13.43925 1.405,-3.025 3.0915,-6.5808 3.7476,-7.90178 0.7087,-1.42675 1.193,-6.92039 1.193,-13.53243 0,-10.927 -0.8146,-14.68741 -4.7802,-22.06579 -0.5912,-1.1 -1.7825,-3.35 -2.6474,-5 -0.8648,-1.65 -2.1349,-3.35986 -2.8224,-3.79969 -0.6875,-0.43983 -1.25,-1.37187 -1.25,-2.07119 0,-0.69932 -2.0893,-3.03946 -4.6429,-5.20031 -2.5537,-2.16085 -5.4787,-4.71631 -6.5,-5.67881 -1.0214,-0.9625 -2.0734,-1.75 -2.3378,-1.75 -0.2644,0 -3.83002,-2.25 -7.92362,-5 -4.09357,-2.75 -7.65977,-5 -7.92497,-5 -0.2652,0 -5.2048,-2.25 -10.977,-5 -5.7722,-2.75 -11.1881,-5 -12.0353,-5 -0.8472,0 -1.7869,-0.39899 -2.0883,-0.88664 -0.3014,-0.48765 -2.2405,-1.20292 -4.309,-1.58948 -2.0686,-0.38657 -4.2192,-1.08106 -4.7791,-1.54331 -1.7874,-1.47558 -23.5977,-6.15541 -34.9572,-7.50075 -10.6957,-1.26673 -44.5276,-1.21414 -46.6094,0.0724 -0.5343,0.33026 -2.4214,0.77084 -4.1935,0.97906 -14.3897,1.69083 -26.5814,5.96435 -33.3084,11.67549 -6.03,5.11934 -11.1839,13.54295 -13.0003,21.24781 -1.6588,7.03601 -1.6639,7.82306 -0.087,13.49364 0.9208,3.31199 2.9616,8.16604 4.5352,10.78677 2.6331,4.38545 5.4069,11.03036 7.8914,18.90482 1.5166,4.80681 0.6804,15.593 -1.6102,20.7714 -3.2275,7.29622 -10.588,13.15878 -20.0483,15.96819 -5.6409,1.67515 -21.7369,1.54256 -28.8171,-0.23739 -2.0773,-0.52221 -5.1269,-0.96737 -6.7769,-0.98924 -1.65,-0.0219 -7.95,-1.22905 -14,-2.68263 -6.05,-1.45359 -13.925,-3.06361 -17.5,-3.57782 -3.575,-0.51421 -19.4854,-3.87413 -35.3564,-7.46649 -15.871,-3.59235 -29.551,-6.39528 -30.3999,-6.22872"
       id="path5805"
       inkscape:connector-curvature="0"
       sodipodi:nodetypes="cscsssscssscccccsscssccssssssscscsscccscsscsssc"
       inkscape:export-filename="D:\Programming\C\Puzzle\Doku\features.png"
       inkscape:export-xdpi="35.330002"
       inkscape:export-ydpi="35.330002" />
    <path
       style="fill:#ff0000;stroke:#000000;stroke-width:3.6;stroke-linecap:butt;stroke-linejoin:miter;stroke-miterlimit:4;stroke-opacity:1;stroke-dasharray:none;stroke-dashoffset:0;fill-opacity:0.20467836000000000"
       d="M 879.78125 626.4375 C 869.72609 626.45312 860.75965 626.79423 859.71875 627.4375 C 859.18445 627.76776 857.30335 628.19803 855.53125 628.40625 C 841.14155 630.09708 828.94575 634.38261 822.21875 640.09375 C 816.18875 645.21309 811.03515 653.63889 809.21875 661.34375 C 807.55995 668.37976 807.5481 669.17317 809.125 674.84375 C 810.0458 678.15574 812.08265 683.00427 813.65625 685.625 C 816.28935 690.01045 819.078 696.65679 821.5625 704.53125 C 823.0791 709.33806 822.2281 720.1341 819.9375 725.3125 C 816.71 732.60872 809.3353 738.47184 799.875 741.28125 C 794.2341 742.9564 778.1427 742.8112 771.0625 741.03125 C 768.9852 740.50904 765.93125 740.05312 764.28125 740.03125 C 762.63125 740.00935 756.33125 738.82858 750.28125 737.375 C 744.23125 735.92141 736.35625 734.29546 732.78125 733.78125 C 729.20625 733.26704 713.3085 729.90486 697.4375 726.3125 C 681.5665 722.72015 667.88015 719.92719 667.03125 720.09375 L 667.34375 720.15625 L 669.84375 720.71875 L 1146.5938 828.875 C 1144.2284 828.26281 1140.4813 827.12741 1138.2812 826.34375 C 1132.3755 824.24003 1086.2167 813.89485 1082.5 813.84375 C 1080.7442 813.81965 1077.4812 813.11421 1075.2812 812.28125 C 1073.0812 811.4483 1063.6312 809.00045 1054.2812 806.84375 C 1044.9313 804.68705 1036.6063 802.53873 1035.7812 802.0625 C 1034.9562 801.58628 1031.9204 800.62774 1029.0312 799.9375 C 1026.142 799.24726 1023.5245 798.27599 1023.2188 797.78125 C 1022.913 797.28651 1021.8764 796.875 1020.9062 796.875 C 1018.082 796.875 1006.8254 791.05966 1001.9375 787.0625 C 999.46783 785.04286 995.86675 780.9 993.90625 777.875 C 990.67993 772.89691 990.329 771.73233 990.3125 765.3125 C 990.3015 761.00037 990.88313 757.07988 991.78125 755.3125 C 993.38775 752.15133 1000.8082 742.03561 1003.5 739.34375 C 1005.5703 737.27349 1008.0162 733.03894 1011.3438 725.875 C 1012.7487 722.85 1014.4376 719.32098 1015.0938 718 C 1015.8025 716.57325 1016.2812 711.08079 1016.2812 704.46875 C 1016.2812 693.54175 1015.4656 689.75338 1011.5 682.375 C 1010.9088 681.275 1009.7399 679.025 1008.875 677.375 C 1008.0102 675.725 1006.7188 674.03358 1006.0312 673.59375 C 1005.3438 673.15392 1004.7812 672.23057 1004.7812 671.53125 C 1004.7812 670.83193 1002.7099 668.47335 1000.1562 666.3125 C 997.60258 664.15165 994.67755 661.5875 993.65625 660.625 C 992.63485 659.6625 991.5769 658.875 991.3125 658.875 C 991.0481 658.875 987.49985 656.625 983.40625 653.875 C 979.31268 651.125 975.73395 648.875 975.46875 648.875 C 975.20355 648.875 970.2722 646.625 964.5 643.875 C 958.7278 641.125 953.31595 638.875 952.46875 638.875 C 951.62155 638.875 950.6764 638.48765 950.375 638 C 950.0736 637.51235 948.131 636.79281 946.0625 636.40625 C 943.9939 636.01968 941.84115 635.33725 941.28125 634.875 C 939.49385 633.39942 917.672 628.72034 906.3125 627.375 C 900.96465 626.74163 889.83641 626.42188 879.78125 626.4375 z "
       id="path5807"
       inkscape:export-filename="D:\Programming\C\Puzzle\Doku\features.png"
       inkscape:export-xdpi="35.330002"
       inkscape:export-ydpi="35.330002" />
    <path
       sodipodi:nodetypes="cscsssscssscccccsscssccssssssscscsscccscsscsssc"
       inkscape:connector-curvature="0"
       id="path5812"
       d="m 635.2985,280.11117 c -2.3654,-0.61219 -6.1008,-1.75426 -8.3008,-2.53792 -5.9058,-2.10372 -52.0909,-12.44624 -55.8076,-12.49734 -1.7558,-0.0241 -4.9924,-0.7254 -7.1924,-1.55836 -2.2,-0.83295 -11.65,-3.27904 -21,-5.43574 -9.35,-2.1567 -17.675,-4.31091 -18.5,-4.78714 -0.825,-0.47622 -3.8639,-1.43061 -6.7531,-2.12085 -2.8892,-0.69024 -5.5032,-1.65976 -5.809,-2.1545 -0.3057,-0.49474 -1.3496,-0.89952 -2.3197,-0.89952 -2.8243,0 -14.0743,-5.83077 -18.9622,-9.82793 -2.4697,-2.01964 -6.0944,-6.14707 -8.0549,-9.17207 -3.2263,-4.97809 -3.5663,-6.17306 -3.5828,-12.59289 -0.011,-4.31213 0.5609,-8.23262 1.459,-10 1.6065,-3.16117 9.0345,-13.276 11.7263,-15.96786 2.0703,-2.07026 4.5283,-6.27531 7.8558,-13.43925 1.405,-3.025 3.0915,-6.5808 3.7476,-7.90178 0.7087,-1.42675 1.193,-6.92039 1.193,-13.53243 0,-10.927 -0.8146,-14.68741 -4.7802,-22.06579 -0.5912,-1.1 -1.7825,-3.35 -2.6474,-5 -0.8648,-1.65 -2.1349,-3.35986 -2.8224,-3.79969 -0.6875,-0.43983 -1.25,-1.37187 -1.25,-2.07119 0,-0.69932 -2.0893,-3.03946 -4.6429,-5.20031 -2.5537,-2.16085 -5.4787,-4.71631 -6.5,-5.67881 -1.0214,-0.9625 -2.0734,-1.75 -2.3378,-1.75 -0.2644,0 -3.83,-2.25 -7.9236,-5 -4.09357,-2.75 -7.65977,-5 -7.92497,-5 -0.2652,0 -5.2048,-2.249996 -10.977,-4.999996 -5.7722,-2.75 -11.1881,-5 -12.0353,-5 -0.8472,0 -1.7869,-0.39899 -2.0883,-0.88664 -0.3014,-0.48765 -2.2405,-1.20292 -4.309,-1.58948 -2.0686,-0.38657 -4.2192,-1.08106 -4.7791,-1.54331 -1.7874,-1.47558 -23.5977,-6.15541 -34.9572,-7.50075 -10.6957,-1.26673 -44.5276,-1.21414 -46.6094,0.0724 -0.5343,0.33026 -2.4214,0.77084 -4.1935,0.97906 -14.3897,1.69083 -26.5814,5.96435 -33.3084,11.67549 -6.03,5.11934 -11.1839,13.542946 -13.0003,21.247806 -1.6588,7.03601 -1.6639,7.82306 -0.087,13.49364 0.9208,3.31199 2.9616,8.16604 4.5352,10.78677 2.6331,4.38545 5.4069,11.03036 7.8914,18.90482 1.5166,4.80681 0.6804,15.593 -1.6102,20.7714 -3.2275,7.29622 -10.588,13.15878 -20.0483,15.96819 -5.6409,1.67515 -21.7369,1.54256 -28.8171,-0.23739 -2.0773,-0.52221 -5.1269,-0.96737 -6.7769,-0.98924 -1.65,-0.0219 -7.95,-1.22905 -14,-2.68263 -6.05,-1.45359 -13.925,-3.06361 -17.5,-3.57782 -3.575,-0.51421 -19.4854,-3.87413 -35.3564,-7.46649 -15.871,-3.59235 -29.551,-6.39528 -30.3999,-6.22872"
       style="fill:none;stroke:#0000ff;stroke-width:4.4000001;stroke-miterlimit:4;stroke-opacity:1;stroke-dasharray:none"
       inkscape:export-filename="D:\Programming\C\Puzzle\Doku\features.png"
       inkscape:export-xdpi="35.330002"
       inkscape:export-ydpi="35.330002" />
  </g>
</svg>
